<svg width="50" height="50" viewBox="0 0 50 50" fill="none" xmlns="http://www.w3.org/2000/svg">
<path d="M30.2955 22.7955C30.7348 22.3562 30.7348 21.6438 30.2955 21.2045C29.8562 20.7652 29.1438 20.7652 28.7045 21.2045L23.5 26.409L21.2955 24.2045C20.8562 23.7652 20.1438 23.7652 19.7045 24.2045C19.2652 24.6438 19.2652 25.3562 19.7045 25.7955L22.7045 28.7955C23.1438 29.2348 23.8562 29.2348 24.2955 28.7955L30.2955 22.7955Z" fill="white"/>
<path fill-rule="evenodd" clip-rule="evenodd" d="M40 25C40 33.2843 33.2843 40 25 40C16.7157 40 10 33.2843 10 25C10 16.7157 16.7157 10 25 10C33.2843 10 40 16.7157 40 25ZM37.75 25C37.75 32.0416 32.0416 37.75 25 37.75C17.9584 37.75 12.25 32.0416 12.25 25C12.25 17.9584 17.9584 12.25 25 12.25C32.0416 12.25 37.75 17.9584 37.75 25Z" fill="white"/>
</svg>
